<svg xmlns="http://www.w3.org/2000/svg" viewBox="0 0 112.2 56.11"><defs><style>.cls-1{fill:#fff;}.cls-2{fill:none;}.cls-3{isolation:isolate;}</style></defs><title>logo</title><g id="Layer_2" data-name="Layer 2"><g id="HEADER"><polygon class="cls-1" points="93.26 38 93.26 8.72 82.92 8.72 82.92 0.11 112.2 0.11 112.2 8.72 101.87 8.72 101.87 38 93.26 38"/><path class="cls-1" d="M0,44.11A16.23,16.23,0,0,0,14.3,28V10.11h-5V.11h15V28c0,13.3-11.2,25.1-24.3,26.1Z"/><polygon class="cls-1" points="72.89 0 63.38 0 53.88 12.1 44.37 0 34.86 0 49.04 19.01 34.86 38.02 44.37 38.02 53.88 25.93 63.38 38.02 72.89 38.02 58.8 19.01 72.89 0"/><rect class="cls-2" x="63.86" y="41.11" width="48.34" height="15"/><g class="cls-3"><path class="cls-1" d="M65.25,53.89V41h4.44a10.77,10.77,0,0,1,2.29.18,4.36,4.36,0,0,1,1.89.92,5.25,5.25,0,0,1,1.52,2.2,8.65,8.65,0,0,1,.51,3.06,9,9,0,0,1-.34,2.6,6.3,6.3,0,0,1-.88,1.88A4.66,4.66,0,0,1,73.51,53a4.78,4.78,0,0,1-1.54.65,8.78,8.78,0,0,1-2.07.22ZM67,52.37h2.75a6.68,6.68,0,0,0,2-.24,2.86,2.86,0,0,0,1.16-.67,4.06,4.06,0,0,0,.94-1.63,8,8,0,0,0,.34-2.48,6,6,0,0,0-.66-3.11,3.34,3.34,0,0,0-1.61-1.45,6.67,6.67,0,0,0-2.21-.26H67Z"/><path class="cls-1" d="M84.44,50.89l1.63.2a4,4,0,0,1-1.43,2.22,4.85,4.85,0,0,1-5.92-.47,4.93,4.93,0,0,1-1.2-3.54,5.16,5.16,0,0,1,1.21-3.66,4.11,4.11,0,0,1,3.15-1.3,4,4,0,0,1,3.06,1.27,5.06,5.06,0,0,1,1.19,3.59q0,.14,0,.42h-7A3.59,3.59,0,0,0,80,52a2.59,2.59,0,0,0,2,.82,2.42,2.42,0,0,0,1.49-.46A3,3,0,0,0,84.44,50.89Zm-5.19-2.56h5.21a3.16,3.16,0,0,0-.6-1.77,2.42,2.42,0,0,0-2-.91,2.51,2.51,0,0,0-1.83.73A2.89,2.89,0,0,0,79.24,48.33Z"/><path class="cls-1" d="M88.06,53.89V44.56h1.42v1.31a3.33,3.33,0,0,1,1.17-1.1,3.28,3.28,0,0,1,1.66-.42,3.07,3.07,0,0,1,1.7.43,2.3,2.3,0,0,1,.94,1.2,3.35,3.35,0,0,1,2.88-1.63,2.84,2.84,0,0,1,2.14.77,3.29,3.29,0,0,1,.75,2.37v6.41H99.13V48A4.33,4.33,0,0,0,99,46.65a1.32,1.32,0,0,0-.56-.67,1.74,1.74,0,0,0-.95-.25,2.21,2.21,0,0,0-1.63.65,2.89,2.89,0,0,0-.65,2.1v5.42H93.6V47.83a2.67,2.67,0,0,0-.39-1.58A1.46,1.46,0,0,0,92,45.72a2.3,2.3,0,0,0-1.23.35,2,2,0,0,0-.82,1,5.79,5.79,0,0,0-.25,2v4.84Z"/><path class="cls-1" d="M102.46,49.23a4.81,4.81,0,0,1,1.44-3.84,4.34,4.34,0,0,1,2.94-1A4.19,4.19,0,0,1,110,45.61a4.8,4.8,0,0,1,1.22,3.48,6.17,6.17,0,0,1-.54,2.83,3.82,3.82,0,0,1-1.57,1.6,4.58,4.58,0,0,1-2.25.57,4.2,4.2,0,0,1-3.17-1.26A5,5,0,0,1,102.46,49.23Zm1.63,0a4,4,0,0,0,.78,2.68,2.6,2.6,0,0,0,3.93,0,4.07,4.07,0,0,0,.78-2.73,3.86,3.86,0,0,0-.79-2.62,2.61,2.61,0,0,0-3.92,0A4,4,0,0,0,104.09,49.23Z"/></g></g></g></svg>