<svg xmlns="http://www.w3.org/2000/svg" viewBox="0 0 112.2 56.11"><defs><style>.cls-1{fill:#fff;}.cls-2{fill:none;}.cls-3{isolation:isolate;}</style></defs><title>logo</title><g id="HEADER"><path class="cls-1" d="M93.26 38v-29.28h-10.34v-8.61h29.28v8.61h-10.33v29.28h-8.61zM0 44.11a16.23 16.23 0 0 0 14.3-16.11v-17.89h-5v-10h15v27.89c0 13.3-11.2 25.1-24.3 26.1zM72.89 0h-9.51l-9.5 12.1-9.51-12.1h-9.51l14.18 19.01-14.18 19.01h9.51l9.51-12.09 9.5 12.09h9.51l-14.09-19.01 14.09-19.01z"/><path class="cls-2" d="M63.86 41.11h48.34v15h-48.34z"/><g class="cls-3"><path class="cls-1" d="M65.25 53.89v-12.89h4.44a10.77 10.77 0 0 1 2.29.18 4.36 4.36 0 0 1 1.89.92 5.25 5.25 0 0 1 1.52 2.2 8.65 8.65 0 0 1 .51 3.06 9 9 0 0 1-.34 2.6 6.3 6.3 0 0 1-.88 1.88 4.66 4.66 0 0 1-1.17 1.16 4.78 4.78 0 0 1-1.54.65 8.78 8.78 0 0 1-2.07.22zm1.75-1.52h2.75a6.68 6.68 0 0 0 2-.24 2.86 2.86 0 0 0 1.16-.67 4.06 4.06 0 0 0 .94-1.63 8 8 0 0 0 .34-2.48 6 6 0 0 0-.66-3.11 3.34 3.34 0 0 0-1.61-1.45 6.67 6.67 0 0 0-2.21-.26h-2.71zM84.44 50.89l1.63.2a4 4 0 0 1-1.43 2.22 4.85 4.85 0 0 1-5.92-.47 4.93 4.93 0 0 1-1.2-3.54 5.16 5.16 0 0 1 1.21-3.66 4.11 4.11 0 0 1 3.15-1.3 4 4 0 0 1 3.06 1.27 5.06 5.06 0 0 1 1.19 3.59v.42h-7a3.59 3.59 0 0 0 .87 2.38 2.59 2.59 0 0 0 2 .82 2.42 2.42 0 0 0 1.49-.46 3 3 0 0 0 .95-1.47zm-5.19-2.56h5.21a3.16 3.16 0 0 0-.6-1.77 2.42 2.42 0 0 0-2-.91 2.51 2.51 0 0 0-1.83.73 2.89 2.89 0 0 0-.79 1.95zM88.06 53.89v-9.33h1.42v1.31a3.33 3.33 0 0 1 1.17-1.1 3.28 3.28 0 0 1 1.66-.42 3.07 3.07 0 0 1 1.7.43 2.3 2.3 0 0 1 .94 1.2 3.35 3.35 0 0 1 2.88-1.63 2.84 2.84 0 0 1 2.14.77 3.29 3.29 0 0 1 .75 2.37v6.41h-1.59v-5.9a4.33 4.33 0 0 0-.13-1.35 1.32 1.32 0 0 0-.56-.67 1.74 1.74 0 0 0-.95-.25 2.21 2.21 0 0 0-1.63.65 2.89 2.89 0 0 0-.65 2.1v5.42h-1.61v-6.07a2.67 2.67 0 0 0-.39-1.58 1.46 1.46 0 0 0-1.21-.53 2.3 2.3 0 0 0-1.23.35 2 2 0 0 0-.82 1 5.79 5.79 0 0 0-.25 2v4.84zM102.46 49.23a4.81 4.81 0 0 1 1.44-3.84 4.34 4.34 0 0 1 2.94-1 4.19 4.19 0 0 1 3.16 1.22 4.8 4.8 0 0 1 1.22 3.48 6.17 6.17 0 0 1-.54 2.83 3.82 3.82 0 0 1-1.57 1.6 4.58 4.58 0 0 1-2.25.57 4.2 4.2 0 0 1-3.17-1.26 5 5 0 0 1-1.23-3.6zm1.63 0a4 4 0 0 0 .78 2.68 2.6 2.6 0 0 0 3.93 0 4.07 4.07 0 0 0 .78-2.73 3.86 3.86 0 0 0-.79-2.62 2.61 2.61 0 0 0-3.92 0 4 4 0 0 0-.78 2.67z"/></g></g></svg>